classDiagram
    class SimpleHierarchy_Models_Address ["Address"]
    class SimpleHierarchy_Models_Address {
        +string Street
        +string City
        +string ZipCode
        +string Country
        +Localisation Location
    }
    class SimpleHierarchy_Models_Admin ["Admin"]
    class SimpleHierarchy_Models_Admin {
        +string Permissions
        +DateTime? LastLogin
    }
    class SimpleHierarchy_Models_Foo ["Foo"]
    class SimpleHierarchy_Models_Foo {
        +Dictionary~Guid, User~ Data
    }
    class SimpleHierarchy_Models_Localisation ["Localisation"]
    <<record>> SimpleHierarchy_Models_Localisation
    class SimpleHierarchy_Models_Localisation {
        +int X
        +int Y
        +int Z
    }
    class SimpleHierarchy_Models_User ["User"]
    class SimpleHierarchy_Models_User {
        +string Username
        +string Email
        +Address PrimaryAddress
        +List~Address~ ShippingAddresses
    }
    class SimpleHierarchy_Base_BaseEntity ["BaseEntity"]
    <<abstract>> SimpleHierarchy_Base_BaseEntity
    class SimpleHierarchy_Base_BaseEntity {
        +Guid Id
        +DateTime CreatedAt
        +DateTime? UpdatedAt
    }
    SimpleHierarchy_Models_Address "1" --> SimpleHierarchy_Models_Localisation : Location
    SimpleHierarchy_Models_User <|-- SimpleHierarchy_Models_Admin
    SimpleHierarchy_Models_Foo "1" --> SimpleHierarchy_Models_User : Data
    SimpleHierarchy_Base_BaseEntity <|-- SimpleHierarchy_Models_User
    SimpleHierarchy_Models_User "1" --> SimpleHierarchy_Models_Address : PrimaryAddress
    SimpleHierarchy_Models_User "*" --> SimpleHierarchy_Models_Address : ShippingAddresses
